<svg width="110" height="115" viewBox="0 0 110 115" fill="none" xmlns="http://www.w3.org/2000/svg">
<path d="M77.4213 14.7648C84.6513 18.6107 88.783 26.7886 89.5269 37.0294C90.2702 47.2624 87.6179 59.477 81.3656 71.2311C75.1133 82.9852 66.467 92.0115 57.5661 97.1145C48.6584 102.221 39.5678 103.366 32.3378 99.5202C25.1078 95.6744 20.9761 87.4965 20.2322 77.2556C19.4889 67.0227 22.1412 54.808 28.3935 43.0539C34.6458 31.2998 43.2921 22.2736 52.1929 17.1706C61.1007 12.0637 70.1913 10.919 77.4213 14.7648Z" stroke="#BBBEBE"/>
<path d="M7.82189 66.607C6.20716 58.5786 9.90671 50.1963 17.3503 43.1237C24.7881 36.0565 35.9121 30.3566 48.9642 27.7315C62.0164 25.1064 74.4791 26.0624 84.0708 29.7045C93.6699 33.3494 100.322 39.6496 101.937 47.678C103.552 55.7065 99.8524 64.0888 92.4088 71.1614C84.971 78.2285 73.847 83.9284 60.7949 86.5536C47.7427 89.1787 35.28 88.2227 25.6883 84.5806C16.0892 80.9357 9.43662 74.6355 7.82189 66.607Z" stroke="#BBBEBE"/>
<path d="M23.2966 20.9967C29.4634 15.6084 38.5763 14.6571 48.4116 17.6059C58.2393 20.5525 68.7107 27.3776 77.4707 37.4032C86.2307 47.4288 91.5895 58.721 93.1913 68.8552C94.7943 78.9971 92.6293 87.9 86.4625 93.2883C80.2957 98.6767 71.1828 99.6279 61.3475 96.6791C51.5198 93.7325 41.0484 86.9074 32.2884 76.8818C23.5284 66.8563 18.1696 55.564 16.5678 45.4299C14.9648 35.288 17.1298 26.3851 23.2966 20.9967Z" stroke="#BBBEBE"/>
</svg>
